<?xml version="1.0" encoding="UTF-8" standalone="no"?>
<!DOCTYPE svg PUBLIC "-//W3C//DTD SVG 1.1//EN" "http://www.w3.org/Graphics/SVG/1.1/DTD/svg11.dtd">
<svg width="100%" height="100%" viewBox="0 0 500 500" version="1.1" xmlns="http://www.w3.org/2000/svg" xmlns:xlink="http://www.w3.org/1999/xlink" xml:space="preserve" xmlns:serif="http://www.serif.com/" style="fill-rule:evenodd;clip-rule:evenodd;stroke-linecap:round;stroke-linejoin:round;stroke-miterlimit:1.5;">
    <rect x="0" y="0" width="500" height="500" style="fill:rgb(250,200,108);"/>
    <g id="Layer1">
        <g transform="matrix(1,0,0,1,-4.35587,0)">
            <path d="M69.605,82.861C69.605,82.861 72.299,75.473 67.48,70.973" style="fill:none;stroke:rgb(222,171,75);stroke-width:2px;"/>
        </g>
        <g transform="matrix(-1,0,0,1,147.344,0)">
            <path d="M69.605,82.861C69.605,82.861 70.982,75.506 65.47,72.178" style="fill:none;stroke:rgb(222,171,75);stroke-width:2px;"/>
        </g>
        <path d="M71.793,80.761C71.793,80.761 71.841,73.752 74.112,66.886" style="fill:none;stroke:rgb(222,171,75);stroke-width:2px;"/>
    </g>
    <g id="Layer11" serif:id="Layer1" transform="matrix(-1,0,0,1,267.762,19.5565)">
        <g transform="matrix(1,0,0,1,-4.35587,0)">
            <path d="M69.605,82.861C69.605,82.861 72.299,75.473 67.48,70.973" style="fill:none;stroke:rgb(222,171,75);stroke-width:2px;"/>
        </g>
        <g transform="matrix(-1,0,0,1,147.344,0)">
            <path d="M69.605,82.861C69.605,82.861 70.982,75.506 65.47,72.178" style="fill:none;stroke:rgb(222,171,75);stroke-width:2px;"/>
        </g>
        <path d="M71.793,80.761C71.793,80.761 71.841,73.752 74.112,66.886" style="fill:none;stroke:rgb(222,171,75);stroke-width:2px;"/>
    </g>
    <g id="Layer12" serif:id="Layer1" transform="matrix(-1,0,0,1,442.07,-31.3327)">
        <g transform="matrix(1,0,0,1,-4.35587,0)">
            <path d="M69.605,82.861C69.605,82.861 72.299,75.473 67.48,70.973" style="fill:none;stroke:rgb(222,171,75);stroke-width:2px;"/>
        </g>
        <g transform="matrix(-1,0,0,1,147.344,0)">
            <path d="M69.605,82.861C69.605,82.861 70.982,75.506 65.47,72.178" style="fill:none;stroke:rgb(222,171,75);stroke-width:2px;"/>
        </g>
        <path d="M71.793,80.761C71.793,80.761 71.841,73.752 74.112,66.886" style="fill:none;stroke:rgb(222,171,75);stroke-width:2px;"/>
    </g>
    <g id="Layer13" serif:id="Layer1" transform="matrix(-1,0,0,1,355.054,120.414)">
        <g transform="matrix(1,0,0,1,-4.35587,0)">
            <path d="M69.605,82.861C69.605,82.861 72.299,75.473 67.48,70.973" style="fill:none;stroke:rgb(222,171,75);stroke-width:2px;"/>
        </g>
        <g transform="matrix(-1,0,0,1,147.344,0)">
            <path d="M69.605,82.861C69.605,82.861 70.982,75.506 65.47,72.178" style="fill:none;stroke:rgb(222,171,75);stroke-width:2px;"/>
        </g>
        <path d="M71.793,80.761C71.793,80.761 71.841,73.752 74.112,66.886" style="fill:none;stroke:rgb(222,171,75);stroke-width:2px;"/>
    </g>
    <g id="Layer14" serif:id="Layer1" transform="matrix(-1,0,0,1,528.469,46.712)">
        <g transform="matrix(1,0,0,1,-4.35587,0)">
            <path d="M69.605,82.861C69.605,82.861 72.299,75.473 67.48,70.973" style="fill:none;stroke:rgb(222,171,75);stroke-width:2px;"/>
        </g>
        <g transform="matrix(-1,0,0,1,147.344,0)">
            <path d="M69.605,82.861C69.605,82.861 70.982,75.506 65.47,72.178" style="fill:none;stroke:rgb(222,171,75);stroke-width:2px;"/>
        </g>
        <path d="M71.793,80.761C71.793,80.761 71.841,73.752 74.112,66.886" style="fill:none;stroke:rgb(222,171,75);stroke-width:2px;"/>
    </g>
    <g id="Layer15" serif:id="Layer1" transform="matrix(-1,0,0,1,116.714,194.566)">
        <g transform="matrix(1,0,0,1,-4.35587,0)">
            <path d="M69.605,82.861C69.605,82.861 72.299,75.473 67.48,70.973" style="fill:none;stroke:rgb(222,171,75);stroke-width:2px;"/>
        </g>
        <g transform="matrix(-1,0,0,1,147.344,0)">
            <path d="M69.605,82.861C69.605,82.861 70.982,75.506 65.47,72.178" style="fill:none;stroke:rgb(222,171,75);stroke-width:2px;"/>
        </g>
        <path d="M71.793,80.761C71.793,80.761 71.841,73.752 74.112,66.886" style="fill:none;stroke:rgb(222,171,75);stroke-width:2px;"/>
    </g>
    <g id="Layer16" serif:id="Layer1" transform="matrix(-1,0,0,1,249.011,277.812)">
        <g transform="matrix(1,0,0,1,-4.35587,0)">
            <path d="M69.605,82.861C69.605,82.861 72.299,75.473 67.48,70.973" style="fill:none;stroke:rgb(222,171,75);stroke-width:2px;"/>
        </g>
        <g transform="matrix(-1,0,0,1,147.344,0)">
            <path d="M69.605,82.861C69.605,82.861 70.982,75.506 65.47,72.178" style="fill:none;stroke:rgb(222,171,75);stroke-width:2px;"/>
        </g>
        <path d="M71.793,80.761C71.793,80.761 71.841,73.752 74.112,66.886" style="fill:none;stroke:rgb(222,171,75);stroke-width:2px;"/>
    </g>
    <g id="Layer17" serif:id="Layer1" transform="matrix(-1,0,0,1,498.437,363.408)">
        <g transform="matrix(1,0,0,1,-4.35587,0)">
            <path d="M69.605,82.861C69.605,82.861 72.299,75.473 67.48,70.973" style="fill:none;stroke:rgb(222,171,75);stroke-width:2px;"/>
        </g>
        <g transform="matrix(-1,0,0,1,147.344,0)">
            <path d="M69.605,82.861C69.605,82.861 70.982,75.506 65.47,72.178" style="fill:none;stroke:rgb(222,171,75);stroke-width:2px;"/>
        </g>
        <path d="M71.793,80.761C71.793,80.761 71.841,73.752 74.112,66.886" style="fill:none;stroke:rgb(222,171,75);stroke-width:2px;"/>
    </g>
    <g id="Layer18" serif:id="Layer1" transform="matrix(-1,0,0,1,124.651,379.383)">
        <g transform="matrix(1,0,0,1,-4.35587,0)">
            <path d="M69.605,82.861C69.605,82.861 72.299,75.473 67.48,70.973" style="fill:none;stroke:rgb(222,171,75);stroke-width:2px;"/>
        </g>
        <g transform="matrix(-1,0,0,1,147.344,0)">
            <path d="M69.605,82.861C69.605,82.861 70.982,75.506 65.47,72.178" style="fill:none;stroke:rgb(222,171,75);stroke-width:2px;"/>
        </g>
        <path d="M71.793,80.761C71.793,80.761 71.841,73.752 74.112,66.886" style="fill:none;stroke:rgb(222,171,75);stroke-width:2px;"/>
    </g>
</svg>
